:FULLY-SPECIFIED
:FORCE-ALL-JOINTS-BE-3DOF
:DEGREES
713
root 5.47126 21.2293 7.36583 -125.981 -83.4889 142.335
lfemur -34.9945 -11.584 9.96177
ltibia 71.0984 0 0
lfoot 7.62677 -8.90439 0
ltoes 29.9848 0 0
rfemur -31.3124 -1.5132 -0.463923
rtibia 88.4735 0 0
rfoot 20.2147 -18.4084 0
rtoes 39.0599 0 0
lowerback 5.69907 -0.915912 -1.83451
upperback -1.36795 -1.44617 -1.65593
thorax -4.61516 -0.697956 -0.563685
lowerneck -6.82599 -6.28271 -2.20421
upperneck 0.005877 -8.37155 4.94492
head 1.49056 -4.11416 1.6358
lclavicle 9.34288e-15 3.11997e-14 0
lhumerus 1.45668 -20.9185 16.283
lradius 48.1313 0 0
lwrist 23.2459 0 0
lhand -22.1665 -3.63578 0
lfingers 7.12502 0 0
lthumb 4.24799 26.3015 0
rclavicle 9.34288e-15 3.11997e-14 0
rhumerus -13.3396 -2.51253 -26.4649
rradius 99.4312 0 0
rwrist -9.97945 0 0
rhand -27.2699 -34.625 0
rfingers 7.12502 0 0
rthumb -0.680645 -784.593 0
714
root 5.48112 21.3794 7.58092 -133.293 -85.3496 149.687
lfemur -34.2758 -13.0368 9.24072
ltibia 68.1112 0 0
lfoot 7.53058 -9.17327 0
ltoes 29.9093 0 0
rfemur -32.5737 -1.55003 -1.19137
rtibia 92.7429 0 0
rfoot 20.7891 -19.5359 0
rtoes 40.9954 0 0
lowerback 5.84782 -0.734658 -1.80477
upperback -1.34588 -1.20467 -1.61183
thorax -4.67533 -0.57722 -0.547135
lowerneck -6.85424 -6.36724 -2.31862
upperneck -0.21395 -8.46537 4.92236
head 1.43059 -4.16632 1.64551
lclavicle 1.11319e-14 3.15026e-14 0
lhumerus -0.157124 -20.5796 16.453
lradius 46.3917 0 0
lwrist 22.892 0 0
lhand -22.1928 -3.49492 0
lfingers 7.12502 0 0
lthumb 4.22258 26.4429 0
rclavicle 1.11319e-14 3.15026e-14 0
rhumerus -12.0974 -2.17818 -27.0104
rradius 99.3438 0 0
rwrist -9.92461 0 0
rhand -26.9123 -34.27 0
rfingers 7.12502 0 0
rthumb -0.335316 -784.244 0
715
root 5.49097 21.5295 7.79601 -140.605 -87.2103 157.04
lfemur -33.5571 -14.4896 8.51967
ltibia 65.1241 0 0
lfoot 7.43438 -9.44215 0
ltoes 29.8338 0 0
rfemur -33.8349 -1.58686 -1.91882
rtibia 97.0122 0 0
rfoot 21.3635 -20.6634 0
rtoes 42.9309 0 0
lowerback 5.99658 -0.553404 -1.77502
upperback -1.3238 -0.963173 -1.56773
thorax -4.7355 -0.456483 -0.530585
lowerneck -6.88249 -6.45178 -2.43303
upperneck -0.433777 -8.5592 4.89979
head 1.37063 -4.21848 1.65523
lclavicle 1.2921e-14 3.18055e-14 0
lhumerus -1.77093 -20.2407 16.623
lradius 44.6521 0 0
lwrist 22.5382 0 0
lhand -22.2191 -3.35407 0
lfingers 7.12502 0 0
lthumb 4.19717 26.5843 0
rclavicle 1.2921e-14 3.18055e-14 0
rhumerus -10.8552 -1.84384 -27.5558
rradius 99.2563 0 0
rwrist -9.86977 0 0
rhand -26.5547 -33.9151 0
rfingers 7.12502 0 0
rthumb 0.0100137 -783.895 0
716
root 5.44711 21.4025 8.00895 -141.729 -84.6592 158.577
lfemur -32.9474 -14.5668 7.98785
ltibia 62.7552 0 0
lfoot 7.53797 -9.67022 0
ltoes 29.3256 0 0
rfemur -33.4957 -2.89167 -2.2049
rtibia 98.3985 0 0
rfoot 21.9043 -19.3164 0
rtoes 42.3198 0 0
lowerback 5.71795 -0.180291 -1.62044
upperback -1.39205 -0.455434 -1.55808
thorax -4.62622 -0.206662 -0.619137
lowerneck -6.93963 -6.50494 -2.38197
upperneck -0.49517 -8.63346 4.8159
head 1.35511 -4.25852 1.61677
lclavicle 1.45633e-14 2.77351e-14 0
lhumerus -4.24143 -20.1619 18.0497
lradius 44.85 0 0
lwrist 22.443 0 0
lhand -22.2075 -3.39322 0
lfingers 7.12502 0 0
lthumb 4.20838 26.5449 0
rclavicle 1.45633e-14 2.77351e-14 0
rhumerus -8.7482 -1.27321 -28.3098
rradius 98.8567 0 0
rwrist -9.77935 0 0
rhand -26.7076 -33.7771 0
rfingers 7.12502 0 0
rthumb -0.1377 -783.756 0
717
root 5.40326 21.2755 8.22189 -142.853 -82.108 160.113
lfemur -32.3377 -14.644 7.45603
ltibia 60.3863 0 0
lfoot 7.64156 -9.89829 0
ltoes 28.8175 0 0
rfemur -33.1565 -4.19647 -2.49097
rtibia 99.7848 0 0
rfoot 22.445 -17.9693 0
rtoes 41.7088 0 0
lowerback 5.43933 0.192821 -1.46586
upperback -1.46029 0.0523044 -1.54843
thorax -4.51694 0.0431592 -0.707689
lowerneck -6.99677 -6.5581 -2.33092
upperneck -0.556562 -8.70771 4.73202
head 1.33959 -4.29857 1.57831
lclavicle 1.62057e-14 2.36648e-14 0
lhumerus -6.71194 -20.0831 19.4763
lradius 45.0478 0 0
lwrist 22.3478 0 0
lhand -22.1959 -3.43238 0
lfingers 7.12502 0 0
lthumb 4.21959 26.5055 0
rclavicle 1.62057e-14 2.36648e-14 0
rhumerus -6.64121 -0.702579 -29.0638
rradius 98.4571 0 0
rwrist -9.68893 0 0
rhand -26.8606 -33.6392 0
rfingers 7.12502 0 0
rthumb -0.285414 -783.617 0
718
root 5.3594 21.1486 8.43484 -143.976 -79.5569 161.65
lfemur -31.7279 -14.7212 6.92421
ltibia 58.0174 0 0
lfoot 7.74515 -10.1264 0
ltoes 28.3093 0 0
rfemur -32.8173 -5.50128 -2.77705
rtibia 101.171 0 0
rfoot 22.9858 -16.6223 0
rtoes 41.0977 0 0
lowerback 5.1607 0.565934 -1.31129
upperback -1.52854 0.560043 -1.53877
thorax -4.40766 0.29298 -0.796241
lowerneck -7.0539 -6.61126 -2.27986
upperneck -0.617955 -8.78197 4.64813
head 1.32406 -4.33861 1.53985
lclavicle 1.7848e-14 1.95944e-14 0
lhumerus -9.18244 -20.0042 20.903
lradius 45.2457 0 0
lwrist 22.2527 0 0
lhand -22.1843 -3.47153 0
lfingers 7.12502 0 0
lthumb 4.23079 26.4662 0
rclavicle 1.7848e-14 1.95944e-14 0
rhumerus -4.53421 -0.131949 -29.8178
rradius 98.0575 0 0
rwrist -9.59851 0 0
rhand -27.0135 -33.5012 0
rfingers 7.12502 0 0
rthumb -0.433128 -783.478 0
719
root 5.31555 21.0216 8.64778 -145.1 -77.0057 163.187
lfemur -31.1182 -14.7984 6.39239
ltibia 55.6485 0 0
lfoot 7.84874 -10.3544 0
ltoes 27.8012 0 0
rfemur -32.478 -6.80609 -3.06313
rtibia 102.557 0 0
rfoot 23.5265 -15.2753 0
rtoes 40.4866 0 0
lowerback 4.88207 0.939046 -1.15671
upperback -1.59678 1.06778 -1.52912
thorax -4.29839 0.542801 -0.884794
lowerneck -7.11104 -6.66442 -2.2288
upperneck -0.679347 -8.85623 4.56425
head 1.30854 -4.37865 1.50139
lclavicle 1.94904e-14 1.55241e-14 0
lhumerus -11.6529 -19.9254 22.3296
lradius 45.4436 0 0
lwrist 22.1575 0 0
lhand -22.1727 -3.51068 0
lfingers 7.12502 0 0
lthumb 4.242 26.4268 0
rclavicle 1.94904e-14 1.55241e-14 0
rhumerus -2.42722 0.438682 -30.5717
rradius 97.6578 0 0
rwrist -9.50809 0 0
rhand -27.1665 -33.3633 0
rfingers 7.12502 0 0
rthumb -0.580842 -783.339 0
720
root 5.27169 20.8946 8.86072 -146.224 -74.4546 164.724
lfemur -30.5085 -14.8756 5.86057
ltibia 53.2796 0 0
lfoot 7.95233 -10.5825 0
ltoes 27.293 0 0
rfemur -32.1388 -8.11089 -3.3492
rtibia 103.944 0 0
rfoot 24.0673 -13.9283 0
rtoes 39.8756 0 0
lowerback 4.60344 1.31216 -1.00213
upperback -1.66503 1.57552 -1.51947
thorax -4.18911 0.792622 -0.973346
lowerneck -7.16818 -6.71758 -2.17775
upperneck -0.74074 -8.93049 4.48036
head 1.29302 -4.4187 1.46293
lclavicle 2.11327e-14 1.14537e-14 0
lhumerus -14.1234 -19.8466 23.7563
lradius 45.6415 0 0
lwrist 22.0623 0 0
lhand -22.1611 -3.54984 0
lfingers 7.12502 0 0
lthumb 4.25321 26.3874 0
rclavicle 2.11327e-14 1.14537e-14 0
rhumerus -0.320224 1.00931 -31.3257
rradius 97.2582 0 0
rwrist -9.41767 0 0
rhand -27.3194 -33.2253 0
rfingers 7.12502 0 0
rthumb -0.728556 -783.2 0
721
root 5.22784 20.7676 9.07366 -147.348 -71.9034 166.26
lfemur -29.8988 -14.9527 5.32875
ltibia 50.9107 0 0
lfoot 8.05593 -10.8106 0
ltoes 26.7849 0 0
rfemur -31.7996 -9.4157 -3.63528
rtibia 105.33 0 0
rfoot 24.608 -12.5812 0
rtoes 39.2645 0 0
lowerback 4.32482 1.68527 -0.847551
upperback -1.73328 2.08326 -1.50982
thorax -4.07983 1.04244 -1.0619
lowerneck -7.22532 -6.77073 -2.12669
upperneck -0.802132 -9.00474 4.39648
head 1.2775 -4.45874 1.42447
lclavicle 2.2775e-14 7.38339e-15 0
lhumerus -16.5939 -19.7678 25.1829
lradius 45.8393 0 0
lwrist 21.9671 0 0
lhand -22.1495 -3.58899 0
lfingers 7.12502 0 0
lthumb 4.26442 26.348 0
rclavicle 2.2775e-14 7.38339e-15 0
rhumerus 1.78677 1.57994 -32.0797
rradius 96.8586 0 0
rwrist -9.32724 0 0
rhand -27.4724 -33.0873 0
rfingers 7.12502 0 0
rthumb -0.87627 -783.061 0
722
root 5.18398 20.6407 9.28661 -148.471 -69.3523 167.797
lfemur -29.2891 -15.0299 4.79693
ltibia 48.5418 0 0
lfoot 8.15952 -11.0386 0
ltoes 26.2767 0 0
rfemur -31.4604 -10.7205 -3.92136
rtibia 106.716 0 0
rfoot 25.1488 -11.2342 0
rtoes 38.6534 0 0
lowerback 4.04619 2.05838 -0.692973
upperback -1.80152 2.591 -1.50017
thorax -3.97055 1.29226 -1.15045
lowerneck -7.28246 -6.82389 -2.07563
upperneck -0.863525 -9.079 4.31259
head 1.26198 -4.49878 1.38601
lclavicle 2.44174e-14 3.31303e-15 0
lhumerus -19.0645 -19.689 26.6096
lradius 46.0372 0 0
lwrist 21.872 0 0
lhand -22.1379 -3.62814 0
lfingers 7.12502 0 0
lthumb 4.27563 26.3086 0
rclavicle 2.44174e-14 3.31303e-15 0
rhumerus 3.89377 2.15057 -32.8337
rradius 96.459 0 0
rwrist -9.23682 0 0
rhand -27.6253 -32.9494 0
rfingers 7.12502 0 0
rthumb -1.02398 -782.922 0
